ply
format ascii 1.0
comment meshmixer generated
element vertex 16
property float x
property float y
property float z
property float nx
property float ny
property float nz
property uchar red
property uchar green
property uchar blue
property uchar alpha
element face 32
property list uchar int vertex_indices
end_header
-227215.7656 -66265.05469 2640 0 1 0 255 255 255 255
-227215.7656 -66265.05469 -150 0 1 0 255 255 255 255
-227429.7656 -66265.05469 2640 0 1 0 255 255 255 255
-227429.7656 -66265.05469 -150 0 1 0 255 255 255 255
-227215.7656 -70472.74219 2640 0 0 1 255 255 255 255
-227429.7656 -70472.74219 2640 0 0 1 255 255 255 255
-227429.7656 -66802.13281 2134 0 -1 0 255 255 255 255
-227429.7656 -66802.13281 0 0 -1 0 255 255 255 255
-227215.7656 -66802.13281 2134 0 -1 0 255 255 255 255
-227215.7656 -66802.13281 0 0 -1 0 255 255 255 255
-227215.7656 -67666.13281 2134 1 0 0 255 255 255 255
-227215.7656 -70472.74219 -150 1 0 0 255 255 255 255
-227215.7656 -67666.13281 0 1 0 0 255 255 255 255
-227429.7656 -67666.13281 2134 0 0 -1 255 255 255 255
-227429.7656 -67666.13281 0 -1 0 0 255 255 255 255
-227429.7656 -70472.74219 -150 -1 0 0 255 255 255 255
3 0 1 2 
3 2 1 3 
3 0 2 4 
3 4 2 5 
3 6 7 8 
3 8 7 9 
3 10 11 12 
3 12 11 1 
3 12 1 9 
3 9 1 8 
3 8 1 0 
3 8 0 10 
3 10 0 4 
3 10 4 11 
3 6 8 13 
3 13 8 10 
3 7 3 14 
3 14 3 15 
3 14 15 13 
3 13 15 5 
3 13 5 2 
3 7 6 3 
3 3 6 2 
3 2 6 13 
3 14 12 7 
3 7 12 9 
3 14 13 12 
3 12 13 10 
3 11 15 1 
3 1 15 3 
3 11 4 15 
3 15 4 5 
