ply
format ascii 1.0
comment meshmixer generated
element vertex 8
property float x
property float y
property float z
property float nx
property float ny
property float nz
property uchar red
property uchar green
property uchar blue
property uchar alpha
element face 12
property list uchar int vertex_indices
end_header
-216317.5625 -67733.79688 -150 1 0 0 255 255 255 255
-216317.5625 -67733.79688 2640 1 0 0 255 255 255 255
-216317.5625 -68033.79688 -150 1 0 0 255 255 255 255
-216317.5625 -68033.79688 2640 1 0 0 255 255 255 255
-220679.5156 -67733.79688 -150 0 1 0 255 255 255 255
-220679.5156 -67733.79688 2640 0 1 0 255 255 255 255
-220679.5156 -68033.79688 -150 0 0 -1 255 255 255 255
-220679.5156 -68033.79688 2640 0 0 1 255 255 255 255
3 0 1 2 
3 2 1 3 
3 4 5 0 
3 0 5 1 
3 4 0 6 
3 6 0 2 
3 1 5 3 
3 3 5 7 
3 2 3 6 
3 6 3 7 
3 5 4 7 
3 7 4 6 
