ply
format ascii 1.0
comment meshmixer generated
element vertex 40
property float x
property float y
property float z
property float nx
property float ny
property float nz
property uchar red
property uchar green
property uchar blue
property uchar alpha
element face 76
property list uchar int vertex_indices
end_header
-222952.5 -69569.125 2207 0 -1 0 255 255 255 255
-222952.5 -69569.125 1113 0 -1 0 255 255 255 255
-222163.5 -69569.125 2207 0 -1 0 255 255 255 255
-222163.5 -69569.125 1113 0 -1 0 255 255 255 255
-222163.5 -69557.125 2207 0 1 0 255 255 255 255
-222163.5 -69557.125 1113 0 1 0 255 255 255 255
-222952.5 -69557.125 2207 0 1 0 255 255 255 255
-222952.5 -69557.125 1113 0 1 0 255 255 255 255
-222952.5 -69541.125 2207 1 0 0 255 255 255 255
-222952.5 -69541.125 1113 1 0 0 255 255 255 255
-222952.5 -69585.125 1113 1 0 0 255 255 255 255
-222952.5 -69585.125 2207 1 0 0 255 255 255 255
-222163.5 -69541.125 1113 0 0 1 255 255 255 255
-222163.5 -69585.125 2207 -1 0 0 255 255 255 255
-222163.5 -69585.125 1113 -1 0 0 255 255 255 255
-222163.5 -69541.125 2207 -1 0 0 255 255 255 255
-222132.5 -69585.125 2238 0 -1 0 255 255 255 255
-222983.5 -69585.125 2238 0 -1 0 255 255 255 255
-222983.5 -69585.125 1082 0 -1 0 255 255 255 255
-222132.5 -69585.125 1082 0 -1 0 255 255 255 255
-222996.5 -69541.125 2251 0 1 0 255 255 255 255
-222119.5 -69541.125 2251 0 1 0 255 255 255 255
-222119.5 -69541.125 1069 0 1 0 255 255 255 255
-222996.5 -69541.125 1069 0 1 0 255 255 255 255
-222996.5 -69522.125 1069 0 0 1 255 255 255 255
-222119.5 -69522.125 1069 0 0 1 255 255 255 255
-222119.5 -69522.125 2251 -1 0 0 255 255 255 255
-222996.5 -69522.125 2251 0 0 -1 255 255 255 255
-223015.5 -69522.125 2270 0 1 0 255 255 255 255
-222100.5 -69522.125 2270 0 1 0 255 255 255 255
-222100.5 -69522.125 1050 0 1 0 255 255 255 255
-223015.5 -69522.125 1050 0 1 0 255 255 255 255
-223015.5 -69736.125 1050 -1 0 0 255 255 255 255
-223015.5 -69736.125 2270 -1 0 0 255 255 255 255
-222100.5 -69736.125 1050 0 0 -1 255 255 255 255
-222100.5 -69736.125 2270 0 0 1 255 255 255 255
-222132.5 -69736.125 2238 0 0 -1 255 255 255 255
-222983.5 -69736.125 2238 0 0 -1 255 255 255 255
-222132.5 -69736.125 1082 0 -1 0 255 255 255 255
-222983.5 -69736.125 1082 0 -1 0 255 255 255 255
3 0 1 2 
3 2 1 3 
3 4 5 6 
3 6 5 7 
3 6 7 8 
3 8 7 9 
3 1 0 10 
3 10 0 11 
3 7 5 9 
3 9 5 12 
3 2 3 13 
3 13 3 14 
3 5 4 12 
3 12 4 15 
3 4 6 15 
3 15 6 8 
3 0 2 11 
3 11 2 13 
3 14 16 13 
3 13 16 17 
3 13 17 11 
3 11 17 18 
3 11 18 10 
3 10 18 14 
3 14 18 19 
3 14 19 16 
3 8 20 15 
3 15 20 21 
3 15 21 22 
3 8 9 20 
3 20 9 23 
3 23 9 12 
3 23 12 22 
3 22 12 15 
3 3 1 14 
3 14 1 10 
3 23 22 24 
3 24 22 25 
3 22 21 25 
3 25 21 26 
3 21 20 26 
3 26 20 27 
3 27 28 26 
3 26 28 29 
3 26 29 30 
3 27 24 28 
3 28 24 31 
3 31 24 25 
3 31 25 30 
3 30 25 26 
3 20 23 27 
3 27 23 24 
3 32 33 31 
3 31 33 28 
3 34 32 30 
3 30 32 31 
3 33 35 28 
3 28 35 29 
3 36 37 16 
3 16 37 17 
3 38 35 36 
3 36 35 33 
3 36 33 37 
3 37 33 32 
3 37 32 39 
3 39 32 38 
3 38 32 34 
3 38 34 35 
3 38 36 19 
3 19 36 16 
3 37 39 17 
3 17 39 18 
3 39 38 18 
3 18 38 19 
3 35 34 29 
3 29 34 30 
