ply
format ascii 1.0
comment meshmixer generated
element vertex 28
property float x
property float y
property float z
property float nx
property float ny
property float nz
property uchar red
property uchar green
property uchar blue
property uchar alpha
element face 52
property list uchar int vertex_indices
end_header
-224449.4688 -80584.14844 -310 0 -1 0 255 255 255 255
-224449.4688 -80584.14844 -160 0 -1 0 255 255 255 255
-229417.5312 -80584.14844 -310 0 -1 0 255 255 255 255
-229417.5312 -80584.14844 -160 0 -1 0 255 255 255 255
-229417.5312 -77684.13281 -310 -1 0 0 255 255 255 255
-229417.5312 -77684.13281 -160 -1 0 0 255 255 255 255
-229417.5312 -70484.74219 -310 -1 0 0 255 255 255 255
-229417.5312 -70484.74219 -160 -1 0 0 255 255 255 255
-227417.7656 -70484.74219 -310 0 1 0 255 255 255 255
-227417.7656 -70484.74219 -160 0 1 0 255 255 255 255
-227417.7656 -66265.05469 -310 -1 0 0 255 255 255 255
-227417.7656 -66265.05469 -160 -1 0 0 255 255 255 255
-223467.5 -66265.05469 -310 0 1 0 255 255 255 255
-223467.5 -66265.05469 -160 0 1 0 255 255 255 255
-223467.5 -67733.79688 -310 1 0 0 255 255 255 255
-223467.5 -67733.79688 -160 1 0 0 255 255 255 255
-216317.5625 -67733.79688 -310 0 1 0 255 255 255 255
-216317.5625 -67733.79688 -160 0 1 0 255 255 255 255
-216317.5625 -71038.85156 -310 1 0 0 255 255 255 255
-216317.5625 -71038.85156 -160 1 0 0 255 255 255 255
-216317.5625 -78484.24219 -310 1 0 0 255 255 255 255
-216317.5625 -78484.24219 -160 1 0 0 255 255 255 255
-221937.6562 -78484.24219 -310 0 -1 0 255 255 255 255
-221937.6562 -78484.24219 -160 0 -1 0 255 255 255 255
-224449.4688 -77684.13281 -160 0 0 1 255 255 255 255
-221937.6562 -77684.13281 -160 0 0 1 255 255 255 255
-224449.4688 -77684.13281 -310 0 0 -1 255 255 255 255
-221937.6562 -77684.13281 -310 0 0 -1 255 255 255 255
3 0 1 2 
3 2 1 3 
3 2 3 4 
3 4 3 5 
3 4 5 6 
3 6 5 7 
3 6 7 8 
3 8 7 9 
3 8 9 10 
3 10 9 11 
3 10 11 12 
3 12 11 13 
3 12 13 14 
3 14 13 15 
3 14 15 16 
3 16 15 17 
3 16 17 18 
3 18 17 19 
3 18 19 20 
3 20 19 21 
3 20 21 22 
3 22 21 23 
3 7 5 9 
3 9 5 24 
3 9 24 15 
3 15 24 25 
3 15 25 19 
3 19 25 21 
3 21 25 23 
3 3 1 5 
3 5 1 24 
3 19 17 15 
3 13 11 15 
3 15 11 9 
3 0 2 26 
3 26 2 4 
3 26 4 8 
3 8 4 6 
3 26 8 14 
3 14 8 10 
3 14 10 12 
3 16 18 14 
3 14 18 27 
3 14 27 26 
3 18 20 27 
3 27 20 22 
3 26 24 0 
3 0 24 1 
3 22 23 27 
3 27 23 25 
3 27 25 26 
3 26 25 24 
