ply
format ascii 1.0
comment meshmixer generated
element vertex 40
property float x
property float y
property float z
property float nx
property float ny
property float nz
property uchar red
property uchar green
property uchar blue
property uchar alpha
element face 84
property list uchar int vertex_indices
end_header
-221937.6562 -77384.13281 -150 1 0 0 255 255 255 255
-221937.6562 -77384.13281 2640 1 0 0 255 255 255 255
-221937.6562 -77684.13281 -150 1 0 0 255 255 255 255
-221937.6562 -77684.13281 2640 1 0 0 255 255 255 255
-222312.3281 -77384.13281 2270 -1 0 0 255 255 255 255
-222312.3281 -77384.13281 1050 -1 0 0 255 255 255 255
-222312.3281 -77684.13281 2270 -1 0 0 255 255 255 255
-222312.3281 -77684.13281 1050 -1 0 0 255 255 255 255
-223507.6562 -77684.13281 2270 0 0 -1 255 255 255 255
-223507.6562 -77384.13281 2270 0 0 -1 255 255 255 255
-223507.6562 -77384.13281 1050 0 0 1 255 255 255 255
-223507.6562 -77684.13281 1050 0 0 1 255 255 255 255
-226066.3906 -77384.13281 2133.600098 -1 0 0 255 255 255 255
-226066.3906 -77384.13281 -9.82459278e-06 -1 0 0 255 255 255 255
-226066.3906 -77568.28125 2133.600098 -1 0 0 255 255 255 255
-226066.3906 -77568.28125 -9.82459278e-06 -1 0 0 255 255 255 255
-227895.1875 -77384.13281 2133.600098 0 1 0 255 255 255 255
-229117.5312 -77384.13281 2640 0 1 0 255 255 255 255
-229117.5312 -77384.13281 -150 0 1 0 255 255 255 255
-227895.1875 -77384.13281 -9.82459278e-06 0 1 0 255 255 255 255
-227895.1875 -77568.28125 2133.600098 1 0 0 255 255 255 255
-227895.1875 -77568.28125 -9.82459278e-06 1 0 0 255 255 255 255
-228811.1875 -77568.28125 2133.600098 0 -1 0 255 255 255 255
-228811.1875 -77568.28125 -9.82459278e-06 0 -1 0 255 255 255 255
-228811.1875 -77629.08594 2133.600098 1 0 0 255 255 255 255
-228811.1875 -77629.08594 -9.82459278e-06 1 0 0 255 255 255 255
-227895.1875 -77629.08594 2133.600098 0 1 0 255 255 255 255
-227895.1875 -77629.08594 -9.82459278e-06 0 1 0 255 255 255 255
-226066.3906 -77629.08594 2133.600098 -1 0 0 255 255 255 255
-226066.3906 -77629.08594 -9.82459278e-06 -1 0 0 255 255 255 255
-226066.3906 -77684.13281 2133.600098 -1 0 0 255 255 255 255
-226066.3906 -77684.13281 -9.82459278e-06 -1 0 0 255 255 255 255
-229117.5312 -77684.13281 2640 0 -1 0 255 255 255 255
-227895.1875 -77684.13281 2133.600098 0 -1 0 255 255 255 255
-229117.5312 -77684.13281 -150 0 -1 0 255 255 255 255
-227895.1875 -77684.13281 -9.82459278e-06 0 -1 0 255 255 255 255
-225150.4062 -77568.28125 2133.600098 0 0 -1 255 255 255 255
-225150.4062 -77629.08594 2133.600098 0 0 -1 255 255 255 255
-225150.4062 -77629.08594 -9.82459278e-06 0 1 0 255 255 255 255
-225150.4062 -77568.28125 -9.82459278e-06 0 0 1 255 255 255 255
3 0 1 2 
3 2 1 3 
3 4 5 6 
3 6 5 7 
3 6 8 4 
3 4 8 9 
3 5 10 7 
3 7 10 11 
3 12 13 14 
3 14 13 15 
3 16 17 12 
3 12 17 9 
3 12 9 10 
3 17 16 18 
3 18 16 19 
3 18 19 13 
3 12 10 13 
3 13 10 0 
3 13 0 18 
3 4 1 5 
3 5 1 0 
3 5 0 10 
3 4 9 1 
3 1 9 17 
3 20 21 16 
3 16 21 19 
3 22 23 20 
3 20 23 21 
3 24 25 22 
3 22 25 23 
3 26 27 24 
3 24 27 25 
3 28 29 30 
3 30 29 31 
3 30 32 33 
3 33 32 34 
3 33 34 35 
3 35 34 31 
3 31 34 2 
3 31 2 11 
3 11 2 7 
3 7 2 3 
3 7 3 6 
3 6 3 8 
3 8 3 32 
3 8 32 30 
3 8 30 11 
3 11 30 31 
3 30 33 28 
3 28 33 26 
3 28 26 14 
3 14 26 20 
3 14 20 12 
3 12 20 16 
3 26 24 20 
3 20 24 22 
3 14 36 28 
3 28 36 37 
3 37 38 28 
3 28 38 29 
3 38 15 29 
3 29 15 21 
3 29 21 27 
3 27 21 23 
3 27 23 25 
3 38 39 15 
3 13 19 15 
3 15 19 21 
3 35 31 27 
3 27 31 29 
3 33 35 26 
3 26 35 27 
3 14 15 36 
3 36 15 39 
3 36 39 37 
3 37 39 38 
3 10 9 11 
3 11 9 8 
3 18 0 34 
3 34 0 2 
3 1 17 3 
3 3 17 32 
3 17 18 32 
3 32 18 34 
