ply
format ascii 1.0
comment meshmixer generated
element vertex 16
property float x
property float y
property float z
property float nx
property float ny
property float nz
property uchar red
property uchar green
property uchar blue
property uchar alpha
element face 32
property list uchar int vertex_indices
end_header
-229117.5312 -70686.74219 -150 -1 0 0 255 255 255 255
-229117.5312 -70686.74219 2640 -1 0 0 255 255 255 255
-229117.5312 -70472.74219 -150 -1 0 0 255 255 255 255
-229117.5312 -70472.74219 2640 -1 0 0 255 255 255 255
-227960.0312 -70686.74219 2032 0 0 -1 255 255 255 255
-228875.0312 -70686.74219 2032 0 0 -1 255 255 255 255
-227960.0312 -70472.74219 2032 0 0 -1 255 255 255 255
-228875.0312 -70472.74219 2032 0 0 -1 255 255 255 255
-228875.0312 -70686.74219 0 1 0 0 255 255 255 255
-228875.0312 -70472.74219 0 1 0 0 255 255 255 255
-227960.0312 -70686.74219 0 0 -1 0 255 255 255 255
-227215.7656 -70686.74219 -150 0 -1 0 255 255 255 255
-227215.7656 -70686.74219 2640 0 -1 0 255 255 255 255
-227215.7656 -70472.74219 -150 0 1 0 255 255 255 255
-227960.0312 -70472.74219 0 0 1 0 255 255 255 255
-227215.7656 -70472.74219 2640 0 1 0 255 255 255 255
3 0 1 2 
3 2 1 3 
3 4 5 6 
3 6 5 7 
3 5 8 7 
3 7 8 9 
3 10 11 4 
3 4 11 12 
3 4 12 1 
3 11 10 0 
3 0 10 8 
3 0 8 5 
3 0 5 1 
3 1 5 4 
3 6 13 14 
3 14 13 2 
3 14 2 9 
3 9 2 7 
3 7 2 3 
3 7 3 6 
3 6 3 15 
3 6 15 13 
3 10 4 14 
3 14 4 6 
3 14 9 10 
3 10 9 8 
3 11 0 13 
3 13 0 2 
3 1 12 3 
3 3 12 15 
3 12 11 15 
3 15 11 13 
