ply
format ascii 1.0
comment meshmixer generated
element vertex 16
property float x
property float y
property float z
property float nx
property float ny
property float nz
property uchar red
property uchar green
property uchar blue
property uchar alpha
element face 32
property list uchar int vertex_indices
end_header
-220465.5156 -71145.85156 -150 -1 0 0 255 255 255 255
-220465.5156 -71145.85156 2650 -1 0 0 255 255 255 255
-220465.5156 -70931.85156 -150 -1 0 0 255 255 255 255
-220465.5156 -70931.85156 2650 -1 0 0 255 255 255 255
-219584.3438 -71145.85156 -30 -1 0 0 255 255 255 255
-219584.3438 -71145.85156 2002 -1 0 0 255 255 255 255
-219584.3438 -70931.85156 -30 -1 0 0 255 255 255 255
-219584.3438 -70931.85156 2002 -1 0 0 255 255 255 255
-220346.3438 -71145.85156 2002 0 0 -1 255 255 255 255
-220346.3438 -70931.85156 2002 0 0 -1 255 255 255 255
-220346.3438 -70931.85156 -30 0 1 0 255 255 255 255
-216317.5625 -70931.85156 -150 0 1 0 255 255 255 255
-216317.5625 -70931.85156 2650 0 1 0 255 255 255 255
-220346.3438 -71145.85156 -30 0 0 1 255 255 255 255
-216317.5625 -71145.85156 -150 0 -1 0 255 255 255 255
-216317.5625 -71145.85156 2650 0 -1 0 255 255 255 255
3 0 1 2 
3 2 1 3 
3 4 5 6 
3 6 5 7 
3 5 8 7 
3 7 8 9 
3 9 10 2 
3 2 10 6 
3 2 6 11 
3 11 6 7 
3 11 7 12 
3 12 7 3 
3 3 7 9 
3 3 9 2 
3 13 4 10 
3 10 4 6 
3 13 0 4 
3 4 0 14 
3 4 14 5 
3 5 14 15 
3 5 15 1 
3 13 8 0 
3 0 8 1 
3 1 8 5 
3 10 9 13 
3 13 9 8 
3 1 15 3 
3 3 15 12 
3 14 0 11 
3 11 0 2 
3 15 14 12 
3 12 14 11 
