ply
format ascii 1.0
comment meshmixer generated
element vertex 96
property float x
property float y
property float z
property float nx
property float ny
property float nz
property uchar red
property uchar green
property uchar blue
property uchar alpha
element face 180
property list uchar int vertex_indices
end_header
-216330.25 -69214.70312 1830.150024 1 0 0 255 255 255 255
-216330.25 -69214.70312 1069.849976 1 0 0 255 255 255 255
-216330.25 -68926.22656 1830.150024 1 0 0 255 255 255 255
-216330.25 -68926.22656 1069.849976 1 0 0 255 255 255 255
-216323.9062 -68926.22656 1830.150024 -1 0 0 255 255 255 255
-216323.9062 -68926.22656 1069.849976 -1 0 0 255 255 255 255
-216323.9062 -69214.70312 1830.150024 -1 0 0 255 255 255 255
-216323.9062 -69214.70312 1069.849976 -1 0 0 255 255 255 255
-216304.8594 -69271.85156 1012.700012 0 1 0 255 255 255 255
-216304.8594 -69271.85156 1887.300049 0 1 0 255 255 255 255
-216298.5 -69271.85156 1012.700012 0 1 0 255 255 255 255
-216298.5 -69271.85156 1887.300049 0 1 0 255 255 255 255
-216304.8594 -69290.90625 1887.300049 0 -1 0 255 255 255 255
-216304.8594 -69290.90625 1012.700012 0 -1 0 255 255 255 255
-216298.5 -69290.90625 1887.300049 0 -1 0 255 255 255 255
-216298.5 -69290.90625 1012.700012 0 -1 0 255 255 255 255
-216412.8125 -69311.53906 1868.25 0 -1 0 255 255 255 255
-216412.8125 -69311.53906 1031.75 0 -1 0 255 255 255 255
-216349.3125 -69311.53906 1868.25 0 -1 0 255 255 255 255
-216349.3125 -69311.53906 1031.75 0 -1 0 255 255 255 255
-216349.3125 -69251.21875 1868.25 0 1 0 255 255 255 255
-216349.3125 -69251.21875 1031.75 0 1 0 255 255 255 255
-216412.8125 -69251.21875 1868.25 0 1 0 255 255 255 255
-216412.8125 -69251.21875 1031.75 0 1 0 255 255 255 255
-216304.8594 -68869.07812 1012.700012 0 0 1 255 255 255 255
-216298.5 -68869.07812 1012.700012 0 0 1 255 255 255 255
-216298.5 -69693.67969 1012.700012 0 0 1 255 255 255 255
-216304.8594 -69693.67969 1012.700012 0 0 1 255 255 255 255
-216298.5 -68869.07812 1887.300049 0 0 -1 255 255 255 255
-216304.8594 -68869.07812 1887.300049 0 0 -1 255 255 255 255
-216412.8125 -68888.125 1031.75 0 0 1 255 255 255 255
-216349.3125 -68888.125 1031.75 0 0 1 255 255 255 255
-216349.3125 -68926.22656 1069.849976 -1 0 0 255 255 255 255
-216349.3125 -69214.70312 1069.849976 -1 0 0 255 255 255 255
-216349.3125 -69214.70312 1830.150024 -1 0 0 255 255 255 255
-216349.3125 -68926.22656 1830.150024 -1 0 0 255 255 255 255
-216349.3125 -68888.125 1868.25 -1 0 0 255 255 255 255
-216412.8125 -68888.125 1868.25 0 0 -1 255 255 255 255
-216336.6094 -68926.22656 1830.150024 -1 0 0 255 255 255 255
-216336.6094 -68926.22656 1069.849976 -1 0 0 255 255 255 255
-216336.6094 -69214.70312 1830.150024 -1 0 0 255 255 255 255
-216336.6094 -69214.70312 1069.849976 -1 0 0 255 255 255 255
-216317.5625 -69214.70312 1830.150024 1 0 0 255 255 255 255
-216317.5625 -69214.70312 1069.849976 1 0 0 255 255 255 255
-216317.5625 -68926.22656 1830.150024 1 0 0 255 255 255 255
-216317.5625 -68926.22656 1069.849976 1 0 0 255 255 255 255
-216304.8594 -68926.22656 1830.150024 0 -1 0 255 255 255 255
-216304.8594 -68926.22656 1069.849976 0 -1 0 255 255 255 255
-216304.8594 -69214.70312 1830.150024 0 0 -1 255 255 255 255
-216304.8594 -69214.70312 1069.849976 0 0 1 255 255 255 255
-216349.3125 -69348.05469 1830.150024 -1 0 0 255 255 255 255
-216349.3125 -69636.53125 1830.150024 -1 0 0 255 255 255 255
-216349.3125 -69674.625 1868.25 -1 0 0 255 255 255 255
-216349.3125 -69636.53125 1069.849976 -1 0 0 255 255 255 255
-216349.3125 -69674.625 1031.75 -1 0 0 255 255 255 255
-216349.3125 -69348.05469 1069.849976 -1 0 0 255 255 255 255
-216336.6094 -69636.53125 1830.150024 0 1 0 255 255 255 255
-216336.6094 -69636.53125 1069.849976 0 1 0 255 255 255 255
-216304.8594 -69348.05469 1830.150024 1 0 0 255 255 255 255
-216304.8594 -69693.67969 1887.300049 1 0 0 255 255 255 255
-216304.8594 -69636.53125 1830.150024 1 0 0 255 255 255 255
-216304.8594 -69636.53125 1069.849976 1 0 0 255 255 255 255
-216304.8594 -69348.05469 1069.849976 1 0 0 255 255 255 255
-216298.5 -69693.67969 1887.300049 0 1 0 255 255 255 255
-216617.5625 -68875.42969 1880.949951 0 0 -1 255 255 255 255
-216412.8125 -68875.42969 1880.949951 0 0 -1 255 255 255 255
-216617.5625 -69687.32812 1880.949951 0 0 -1 255 255 255 255
-216412.8125 -69687.32812 1880.949951 0 0 -1 255 255 255 255
-216617.5625 -69706.375 1900 -1 0 0 255 255 255 255
-216617.5625 -68856.375 1900 -1 0 0 255 255 255 255
-216617.5625 -68856.375 1000 -1 0 0 255 255 255 255
-216617.5625 -69687.32812 1019.049988 -1 0 0 255 255 255 255
-216617.5625 -69706.375 1000 -1 0 0 255 255 255 255
-216617.5625 -68875.42969 1019.049988 -1 0 0 255 255 255 255
-216412.8125 -68875.42969 1019.049988 0 -1 0 255 255 255 255
-216412.8125 -69687.32812 1019.049988 0 1 0 255 255 255 255
-216412.8125 -69674.625 1031.75 0 0 1 255 255 255 255
-216412.8125 -69674.625 1868.25 0 1 0 255 255 255 255
-216298.5 -68856.375 1000 0 0 -1 255 255 255 255
-216298.5 -69706.375 1000 0 0 -1 255 255 255 255
-216298.5 -68856.375 1900 0 1 0 255 255 255 255
-216298.5 -69706.375 1900 0 -1 0 255 255 255 255
-216336.6094 -69348.05469 1069.849976 0 -1 0 255 255 255 255
-216336.6094 -69348.05469 1830.150024 0 -1 0 255 255 255 255
-216317.5625 -69348.05469 1830.150024 0 -1 0 255 255 255 255
-216317.5625 -69348.05469 1069.849976 0 -1 0 255 255 255 255
-216317.5625 -69636.53125 1069.849976 0 0 1 255 255 255 255
-216317.5625 -69636.53125 1830.150024 0 1 0 255 255 255 255
-216330.25 -69636.53125 1830.150024 1 0 0 255 255 255 255
-216330.25 -69636.53125 1069.849976 1 0 0 255 255 255 255
-216330.25 -69348.05469 1830.150024 1 0 0 255 255 255 255
-216330.25 -69348.05469 1069.849976 1 0 0 255 255 255 255
-216323.9062 -69348.05469 1830.150024 -1 0 0 255 255 255 255
-216323.9062 -69348.05469 1069.849976 -1 0 0 255 255 255 255
-216323.9062 -69636.53125 1830.150024 -1 0 0 255 255 255 255
-216323.9062 -69636.53125 1069.849976 -1 0 0 255 255 255 255
3 0 1 2 
3 2 1 3 
3 4 5 6 
3 6 5 7 
3 2 3 4 
3 4 3 5 
3 2 4 0 
3 0 4 6 
3 1 7 3 
3 3 7 5 
3 1 0 7 
3 7 0 6 
3 8 9 10 
3 10 9 11 
3 12 13 14 
3 14 13 15 
3 16 17 18 
3 18 17 19 
3 20 21 22 
3 22 21 23 
3 8 10 24 
3 24 10 25 
3 15 13 26 
3 26 13 27 
3 11 9 28 
3 28 9 29 
3 23 21 30 
3 30 21 31 
3 32 21 33 
3 33 21 20 
3 33 20 34 
3 34 20 35 
3 35 20 36 
3 35 36 31 
3 21 32 31 
3 31 32 35 
3 20 22 36 
3 36 22 37 
3 38 39 40 
3 40 39 41 
3 42 43 44 
3 44 43 45 
3 44 45 46 
3 46 45 47 
3 39 38 32 
3 32 38 35 
3 44 46 42 
3 42 46 48 
3 40 34 38 
3 38 34 35 
3 43 49 45 
3 45 49 47 
3 39 32 41 
3 41 32 33 
3 43 42 49 
3 49 42 48 
3 40 41 34 
3 34 41 33 
3 19 50 18 
3 18 50 51 
3 18 51 52 
3 52 51 53 
3 52 53 54 
3 54 53 19 
3 19 53 55 
3 19 55 50 
3 56 57 51 
3 51 57 53 
3 58 59 60 
3 60 59 27 
3 60 27 61 
3 61 27 62 
3 62 27 13 
3 62 13 12 
3 59 58 12 
3 12 58 62 
3 27 59 26 
3 26 59 63 
3 12 14 59 
3 59 14 63 
3 49 8 47 
3 47 8 24 
3 47 24 29 
3 49 48 8 
3 8 48 9 
3 9 48 46 
3 9 46 29 
3 29 46 47 
3 29 24 28 
3 28 24 25 
3 64 65 66 
3 66 65 67 
3 66 68 64 
3 64 68 69 
3 64 69 70 
3 66 71 68 
3 68 71 72 
3 72 71 73 
3 72 73 70 
3 70 73 64 
3 74 65 73 
3 73 65 64 
3 67 75 66 
3 66 75 71 
3 71 75 73 
3 73 75 74 
3 19 17 54 
3 54 17 76 
3 31 36 30 
3 30 36 37 
3 52 54 77 
3 77 54 76 
3 16 18 77 
3 77 18 52 
3 30 74 23 
3 23 74 75 
3 23 75 17 
3 17 75 76 
3 76 75 67 
3 76 67 77 
3 77 67 16 
3 16 67 22 
3 16 22 23 
3 30 37 74 
3 74 37 65 
3 65 37 22 
3 65 22 67 
3 17 16 23 
3 70 78 72 
3 72 78 79 
3 80 78 69 
3 69 78 70 
3 79 81 72 
3 72 81 68 
3 68 81 69 
3 69 81 80 
3 26 79 15 
3 15 79 10 
3 15 10 11 
3 26 63 79 
3 79 63 81 
3 81 63 14 
3 81 14 11 
3 11 14 15 
3 81 11 80 
3 80 11 28 
3 80 28 25 
3 80 25 78 
3 78 25 10 
3 78 10 79 
3 82 83 55 
3 55 83 50 
3 84 85 58 
3 58 85 62 
3 82 55 57 
3 57 55 53 
3 86 61 85 
3 85 61 62 
3 86 87 61 
3 61 87 60 
3 56 51 83 
3 83 51 50 
3 84 58 87 
3 87 58 60 
3 87 86 84 
3 84 86 85 
3 83 82 56 
3 56 82 57 
3 88 89 90 
3 90 89 91 
3 92 93 94 
3 94 93 95 
3 90 92 88 
3 88 92 94 
3 89 88 95 
3 95 88 94 
3 89 95 91 
3 91 95 93 
3 90 91 92 
3 92 91 93 
