ply
format ascii 1.0
comment meshmixer generated
element vertex 24
property float x
property float y
property float z
property float nx
property float ny
property float nz
property uchar red
property uchar green
property uchar blue
property uchar alpha
element face 52
property list uchar int vertex_indices
end_header
-224272.2656 -70731.8125 2640 -1 0 0 255 255 255 255
-224272.2656 -70731.8125 -150 -1 0 0 255 255 255 255
-224272.2656 -70945.8125 2640 -1 0 0 255 255 255 255
-224272.2656 -70945.8125 -150 -1 0 0 255 255 255 255
-222324 -70731.8125 0 1 0 0 255 255 255 255
-222324 -70731.8125 2134 1 0 0 255 255 255 255
-222324 -70945.8125 0 1 0 0 255 255 255 255
-222324 -70945.8125 2134 1 0 0 255 255 255 255
-221511 -70731.8125 2134 0 0 -1 255 255 255 255
-221511 -70945.8125 2134 0 0 -1 255 255 255 255
-221511 -70731.8125 0 0 0 1 255 255 255 255
-221511 -70945.8125 0 0 0 1 255 255 255 255
-220679.5156 -70731.8125 -150 1 0 0 255 255 255 255
-220679.5156 -70731.8125 2640 1 0 0 255 255 255 255
-220679.5156 -70945.8125 -150 1 0 0 255 255 255 255
-220679.5156 -70945.8125 2640 1 0 0 255 255 255 255
-222820.5 -70731.8125 2270 0 0 -1 255 255 255 255
-222414.5 -70731.8125 2270 0 0 -1 255 255 255 255
-222820.5 -70945.8125 2270 0 0 -1 255 255 255 255
-222414.5 -70945.8125 2270 0 0 -1 255 255 255 255
-222414.5 -70731.8125 1050 -1 0 0 255 255 255 255
-222414.5 -70945.8125 1050 -1 0 0 255 255 255 255
-222820.5 -70945.8125 1050 0 -1 0 255 255 255 255
-222820.5 -70731.8125 1050 1 0 0 255 255 255 255
3 0 1 2 
3 2 1 3 
3 4 5 6 
3 6 5 7 
3 5 8 7 
3 7 8 9 
3 10 4 11 
3 11 4 6 
3 12 13 14 
3 14 13 15 
3 16 17 18 
3 18 17 19 
3 17 20 19 
3 19 20 21 
3 18 2 22 
3 22 2 3 
3 22 3 6 
3 6 3 14 
3 6 14 11 
3 11 14 9 
3 9 14 15 
3 9 15 19 
3 19 15 2 
3 19 2 18 
3 9 19 7 
3 7 19 21 
3 7 21 6 
3 6 21 22 
3 23 16 22 
3 22 16 18 
3 17 16 0 
3 0 16 23 
3 0 23 1 
3 1 23 4 
3 1 4 12 
3 12 4 10 
3 12 10 8 
3 23 20 4 
3 4 20 5 
3 5 20 17 
3 5 17 8 
3 8 17 13 
3 8 13 12 
3 13 17 0 
3 22 21 23 
3 23 21 20 
3 1 12 3 
3 3 12 14 
3 13 0 15 
3 15 0 2 
3 11 9 10 
3 10 9 8 
