ply
format ascii 1.0
comment meshmixer generated
element vertex 36
property float x
property float y
property float z
property float nx
property float ny
property float nz
property uchar red
property uchar green
property uchar blue
property uchar alpha
element face 68
property list uchar int vertex_indices
end_header
-228951.0312 -70472.74219 0 -1 0 0 255 255 255 255
-228951.0312 -70472.74219 2108 -1 0 0 255 255 255 255
-228951.0312 -70447.74219 0 -1 0 0 255 255 255 255
-228951.0312 -70447.74219 2108 -1 0 0 255 255 255 255
-228875.0312 -70472.74219 0 0 0 -1 255 255 255 255
-228875.0312 -70447.74219 0 0 0 -1 255 255 255 255
-228875.0312 -70472.74219 2032 1 0 0 255 255 255 255
-228875.0312 -70447.74219 2032 1 0 0 255 255 255 255
-227960.0312 -70472.74219 2032 0 0 -1 255 255 255 255
-227960.0312 -70447.74219 2032 0 0 -1 255 255 255 255
-227960.0312 -70472.74219 0 -1 0 0 255 255 255 255
-227960.0312 -70447.74219 0 -1 0 0 255 255 255 255
-227884.0312 -70472.74219 0 0 0 -1 255 255 255 255
-227884.0312 -70447.74219 0 0 0 -1 255 255 255 255
-227884.0312 -70472.74219 2108 0 0 1 255 255 255 255
-227884.0312 -70447.74219 2108 0 0 1 255 255 255 255
-227884.0312 -70686.74219 0 1 0 0 255 255 255 255
-227884.0312 -70686.74219 2108 1 0 0 255 255 255 255
-227884.0312 -70711.74219 0 1 0 0 255 255 255 255
-227884.0312 -70711.74219 2108 1 0 0 255 255 255 255
-227960.0312 -70686.74219 0 0 0 -1 255 255 255 255
-227960.0312 -70711.74219 0 0 0 -1 255 255 255 255
-227960.0312 -70686.74219 2032 -1 0 0 255 255 255 255
-227960.0312 -70711.74219 2032 -1 0 0 255 255 255 255
-228875.0312 -70686.74219 2032 0 0 -1 255 255 255 255
-228875.0312 -70711.74219 2032 0 0 -1 255 255 255 255
-228875.0312 -70686.74219 0 1 0 0 255 255 255 255
-228875.0312 -70711.74219 0 1 0 0 255 255 255 255
-228951.0312 -70686.74219 0 0 0 -1 255 255 255 255
-228951.0312 -70711.74219 0 0 0 -1 255 255 255 255
-228951.0312 -70686.74219 2108 0 0 1 255 255 255 255
-228951.0312 -70711.74219 2108 0 0 1 255 255 255 255
-228875.0312 -70635.74219 0 -1 0 0 255 255 255 255
-228875.0312 -70635.74219 2032 -1 0 0 255 255 255 255
-227960.0312 -70635.74219 0 0 0 -1 255 255 255 255
-227960.0312 -70635.74219 2032 0 0 1 255 255 255 255
3 0 1 2 
3 2 1 3 
3 4 0 5 
3 5 0 2 
3 6 4 7 
3 7 4 5 
3 8 6 9 
3 9 6 7 
3 10 8 11 
3 11 8 9 
3 12 10 13 
3 13 10 11 
3 1 14 3 
3 3 14 15 
3 12 14 8 
3 8 14 1 
3 8 1 6 
3 6 1 0 
3 6 0 4 
3 8 10 12 
3 3 15 9 
3 9 15 13 
3 9 13 11 
3 9 7 3 
3 3 7 2 
3 2 7 5 
3 14 12 15 
3 15 12 13 
3 16 17 18 
3 18 17 19 
3 20 16 21 
3 21 16 18 
3 22 20 23 
3 23 20 21 
3 24 22 25 
3 25 22 23 
3 26 24 27 
3 27 24 25 
3 28 26 29 
3 29 26 27 
3 17 30 19 
3 19 30 31 
3 17 22 30 
3 30 22 24 
3 30 24 28 
3 28 24 26 
3 17 16 22 
3 22 16 20 
3 29 25 31 
3 31 25 23 
3 31 23 19 
3 19 23 18 
3 18 23 21 
3 29 27 25 
3 30 28 31 
3 31 28 29 
3 26 24 32 
3 32 24 33 
3 20 26 34 
3 34 26 32 
3 24 22 33 
3 33 22 35 
3 24 26 22 
3 22 26 20 
3 35 34 33 
3 33 34 32 
3 22 20 35 
3 35 20 34 
