ply
format ascii 1.0
comment meshmixer generated
element vertex 16
property float x
property float y
property float z
property float nx
property float ny
property float nz
property uchar red
property uchar green
property uchar blue
property uchar alpha
element face 32
property list uchar int vertex_indices
end_header
-223455.5 -69736.125 -150 -1 0 0 255 255 255 255
-223455.5 -69736.125 2640 -1 0 0 255 255 255 255
-223455.5 -69522.125 -150 -1 0 0 255 255 255 255
-223455.5 -69522.125 2640 -1 0 0 255 255 255 255
-223015.5 -69522.125 1050 1 0 0 255 255 255 255
-223015.5 -69522.125 2270 1 0 0 255 255 255 255
-223015.5 -69736.125 1050 1 0 0 255 255 255 255
-223015.5 -69736.125 2270 1 0 0 255 255 255 255
-221185.5 -69736.125 2270 0 0 -1 255 255 255 255
-221185.5 -69522.125 2270 0 0 -1 255 255 255 255
-220679.5156 -69522.125 2640 0 1 0 255 255 255 255
-221185.5 -69522.125 1050 0 1 0 255 255 255 255
-220679.5156 -69522.125 -150 0 1 0 255 255 255 255
-221185.5 -69736.125 1050 0 0 1 255 255 255 255
-220679.5156 -69736.125 2640 0 -1 0 255 255 255 255
-220679.5156 -69736.125 -150 0 -1 0 255 255 255 255
3 0 1 2 
3 2 1 3 
3 4 5 6 
3 6 5 7 
3 8 7 9 
3 9 7 5 
3 5 3 9 
3 9 3 10 
3 9 10 11 
3 11 10 12 
3 11 12 2 
3 5 4 3 
3 3 4 2 
3 2 4 11 
3 6 13 4 
3 4 13 11 
3 6 7 1 
3 1 7 8 
3 1 8 14 
3 14 8 13 
3 14 13 15 
3 15 13 0 
3 0 13 6 
3 0 6 1 
3 13 8 11 
3 11 8 9 
3 1 14 3 
3 3 14 10 
3 15 0 12 
3 12 0 2 
3 14 15 10 
3 10 15 12 
