ply
format ascii 1.0
comment meshmixer generated
element vertex 16
property float x
property float y
property float z
property float nx
property float ny
property float nz
property uchar red
property uchar green
property uchar blue
property uchar alpha
element face 32
property list uchar int vertex_indices
end_header
-216317.5625 -68033.79688 2640 0 1 0 255 255 255 255
-216317.5625 -68033.79688 -150 0 1 0 255 255 255 255
-216617.5625 -68033.79688 2640 0 1 0 255 255 255 255
-216617.5625 -68033.79688 -150 0 1 0 255 255 255 255
-216317.5625 -68856.375 1000 0 0 1 255 255 255 255
-216617.5625 -68856.375 1000 0 0 1 255 255 255 255
-216317.5625 -69706.375 1000 0 0 1 255 255 255 255
-216617.5625 -69706.375 1000 0 0 1 255 255 255 255
-216617.5625 -68856.375 1900 -1 0 0 255 255 255 255
-216617.5625 -69706.375 1900 -1 0 0 255 255 255 255
-216617.5625 -70931.85156 2640 -1 0 0 255 255 255 255
-216617.5625 -70931.85156 -150 -1 0 0 255 255 255 255
-216317.5625 -69706.375 1900 0 1 0 255 255 255 255
-216317.5625 -68856.375 1900 1 0 0 255 255 255 255
-216317.5625 -70931.85156 -150 1 0 0 255 255 255 255
-216317.5625 -70931.85156 2640 1 0 0 255 255 255 255
3 0 1 2 
3 2 1 3 
3 4 5 6 
3 6 5 7 
3 5 8 2 
3 2 8 9 
3 2 9 10 
3 10 9 7 
3 10 7 11 
3 11 7 3 
3 3 7 5 
3 3 5 2 
3 12 6 9 
3 9 6 7 
3 12 13 0 
3 0 13 4 
3 0 4 1 
3 1 4 6 
3 1 6 14 
3 14 6 15 
3 15 6 12 
3 15 12 0 
3 4 13 5 
3 5 13 8 
3 12 9 13 
3 13 9 8 
3 0 2 15 
3 15 2 10 
3 14 11 1 
3 1 11 3 
3 14 15 11 
3 11 15 10 
