ply
format ascii 1.0
comment meshmixer generated
element vertex 24
property float x
property float y
property float z
property float nx
property float ny
property float nz
property uchar red
property uchar green
property uchar blue
property uchar alpha
element face 52
property list uchar int vertex_indices
end_header
-216617.5625 -78484.24219 2640 0 -1 0 255 255 255 255
-216617.5625 -78484.24219 -150 0 -1 0 255 255 255 255
-216317.5625 -78484.24219 2640 0 -1 0 255 255 255 255
-216317.5625 -78484.24219 -150 0 -1 0 255 255 255 255
-216617.5625 -75331.74219 2270 0 0 -1 255 255 255 255
-216317.5625 -75331.74219 2270 0 0 -1 255 255 255 255
-216617.5625 -75941.74219 2270 0 0 -1 255 255 255 255
-216317.5625 -75941.74219 2270 0 0 -1 255 255 255 255
-216617.5625 -75941.74219 1050 0 1 0 255 255 255 255
-216317.5625 -75941.74219 1050 0 1 0 255 255 255 255
-216617.5625 -75331.74219 1050 0 -1 0 255 255 255 255
-216317.5625 -75331.74219 1050 0 -1 0 255 255 255 255
-216317.5625 -73747.66406 2270 0 1 0 255 255 255 255
-216317.5625 -73747.66406 1050 0 1 0 255 255 255 255
-216617.5625 -73747.66406 2270 0 1 0 255 255 255 255
-216617.5625 -73747.66406 1050 0 1 0 255 255 255 255
-216617.5625 -72527.66406 1050 -1 0 0 255 255 255 255
-216617.5625 -71145.85156 -150 -1 0 0 255 255 255 255
-216617.5625 -71145.85156 2640 -1 0 0 255 255 255 255
-216617.5625 -72527.66406 2270 -1 0 0 255 255 255 255
-216317.5625 -72527.66406 2270 1 0 0 255 255 255 255
-216317.5625 -71145.85156 2640 1 0 0 255 255 255 255
-216317.5625 -72527.66406 1050 1 0 0 255 255 255 255
-216317.5625 -71145.85156 -150 1 0 0 255 255 255 255
3 0 1 2 
3 2 1 3 
3 4 5 6 
3 6 5 7 
3 8 6 9 
3 9 6 7 
3 4 10 5 
3 5 10 11 
3 12 13 14 
3 14 13 15 
3 16 17 15 
3 15 17 10 
3 15 10 4 
3 17 16 18 
3 18 16 19 
3 18 19 14 
3 18 14 4 
3 4 14 15 
3 18 4 0 
3 0 4 6 
3 0 6 8 
3 0 8 1 
3 1 8 10 
3 1 10 17 
3 20 21 12 
3 12 21 5 
3 12 5 11 
3 20 22 21 
3 21 22 23 
3 23 22 13 
3 23 13 11 
3 11 13 12 
3 23 11 3 
3 3 11 9 
3 3 9 2 
3 2 9 7 
3 2 7 5 
3 21 2 5 
3 19 20 14 
3 14 20 12 
3 15 13 16 
3 16 13 22 
3 19 16 20 
3 20 16 22 
3 8 9 10 
3 10 9 11 
3 17 23 1 
3 1 23 3 
3 0 2 18 
3 18 2 21 
3 17 18 23 
3 23 18 21 
