ply
format ascii 1.0
comment meshmixer generated
element vertex 24
property float x
property float y
property float z
property float nx
property float ny
property float nz
property uchar red
property uchar green
property uchar blue
property uchar alpha
element face 52
property list uchar int vertex_indices
end_header
-223669.5 -70731.8125 2640 0 -1 0 255 255 255 255
-223669.5 -70731.8125 -150 0 -1 0 255 255 255 255
-223455.5 -70731.8125 2640 0 -1 0 255 255 255 255
-223455.5 -70731.8125 -150 0 -1 0 255 255 255 255
-223669.5 -69382.125 1000 0 1 0 255 255 255 255
-223669.5 -69382.125 2220 0 1 0 255 255 255 255
-223455.5 -69382.125 1000 0 1 0 255 255 255 255
-223455.5 -69382.125 2220 0 1 0 255 255 255 255
-223455.5 -68164.11719 2220 0 0 -1 255 255 255 255
-223669.5 -68164.11719 2220 0 0 -1 255 255 255 255
-223669.5 -68164.11719 1000 0 0 1 255 255 255 255
-223455.5 -68164.11719 1000 0 0 1 255 255 255 255
-223669.5 -67521.625 1000 0 0 1 255 255 255 255
-223455.5 -67521.625 1000 0 0 1 255 255 255 255
-223669.5 -66606.625 1000 0 0 1 255 255 255 255
-223455.5 -66606.625 1000 0 0 1 255 255 255 255
-223669.5 -66606.625 2220 -1 0 0 255 255 255 255
-223669.5 -66465.05469 2640 -1 0 0 255 255 255 255
-223669.5 -66465.05469 -150 -1 0 0 255 255 255 255
-223669.5 -67521.625 2220 -1 0 0 255 255 255 255
-223455.5 -67521.625 2220 0 1 0 255 255 255 255
-223455.5 -66606.625 2220 0 -1 0 255 255 255 255
-223455.5 -66465.05469 -150 1 0 0 255 255 255 255
-223455.5 -66465.05469 2640 1 0 0 255 255 255 255
3 0 1 2 
3 2 1 3 
3 4 5 6 
3 6 5 7 
3 7 5 8 
3 8 5 9 
3 4 6 10 
3 10 6 11 
3 12 13 14 
3 14 13 15 
3 16 17 14 
3 14 17 18 
3 14 18 12 
3 12 18 10 
3 12 10 9 
3 16 19 17 
3 17 19 9 
3 17 9 0 
3 0 9 5 
3 0 5 4 
3 19 12 9 
3 0 4 1 
3 1 4 10 
3 1 10 18 
3 12 19 13 
3 13 19 20 
3 16 14 21 
3 21 14 15 
3 13 22 15 
3 15 22 23 
3 15 23 21 
3 21 23 20 
3 20 23 8 
3 20 8 11 
3 22 13 11 
3 11 13 20 
3 22 11 3 
3 3 11 6 
3 3 6 2 
3 2 6 7 
3 2 7 8 
3 23 2 8 
3 16 21 19 
3 19 21 20 
3 11 8 10 
3 10 8 9 
3 18 22 1 
3 1 22 3 
3 0 2 17 
3 17 2 23 
3 18 17 22 
3 22 17 23 
