ply
format ascii 1.0
comment meshmixer generated
element vertex 16
property float x
property float y
property float z
property float nx
property float ny
property float nz
property uchar red
property uchar green
property uchar blue
property uchar alpha
element face 32
property list uchar int vertex_indices
end_header
-216617.5625 -78184.24219 -150 1 0 0 255 255 255 255
-216617.5625 -78184.24219 2640 1 0 0 255 255 255 255
-216617.5625 -78484.24219 -150 1 0 0 255 255 255 255
-216617.5625 -78484.24219 2640 1 0 0 255 255 255 255
-220520.0469 -78484.24219 2270 1 0 0 255 255 255 255
-220520.0469 -78484.24219 1050 1 0 0 255 255 255 255
-220520.0469 -78184.24219 2270 1 0 0 255 255 255 255
-220520.0469 -78184.24219 1050 1 0 0 255 255 255 255
-218690.0469 -78184.24219 1050 0 0 1 255 255 255 255
-218690.0469 -78484.24219 1050 0 0 1 255 255 255 255
-221637.6562 -78484.24219 -150 0 -1 0 255 255 255 255
-221637.6562 -78484.24219 2640 0 -1 0 255 255 255 255
-218690.0469 -78484.24219 2270 0 -1 0 255 255 255 255
-218690.0469 -78184.24219 2270 0 0 -1 255 255 255 255
-221637.6562 -78184.24219 2640 0 1 0 255 255 255 255
-221637.6562 -78184.24219 -150 0 1 0 255 255 255 255
3 0 1 2 
3 2 1 3 
3 4 5 6 
3 6 5 7 
3 8 7 9 
3 9 7 5 
3 5 10 9 
3 9 10 2 
3 9 2 3 
3 10 5 11 
3 11 5 4 
3 11 4 12 
3 11 12 3 
3 3 12 9 
3 6 13 4 
3 4 13 12 
3 6 14 13 
3 13 14 1 
3 13 1 8 
3 8 1 0 
3 8 0 15 
3 6 7 14 
3 14 7 15 
3 15 7 8 
3 13 8 12 
3 12 8 9 
3 1 14 3 
3 3 14 11 
3 15 0 10 
3 10 0 2 
3 14 15 11 
3 11 15 10 
