ply
format ascii 1.0
comment meshmixer generated
element vertex 28
property float x
property float y
property float z
property float nx
property float ny
property float nz
property uchar red
property uchar green
property uchar blue
property uchar alpha
element face 52
property list uchar int vertex_indices
end_header
-227417.7656 -70484.74219 2640 -1 0 0 255 255 255 255
-227417.7656 -70484.74219 2790 -1 0 0 255 255 255 255
-227417.7656 -66265.05469 2640 -1 0 0 255 255 255 255
-227417.7656 -66265.05469 2790 -1 0 0 255 255 255 255
-223467.5 -66265.05469 2640 0 1 0 255 255 255 255
-223467.5 -66265.05469 2790 0 1 0 255 255 255 255
-223467.5 -69533.88281 2640 1 0 0 255 255 255 255
-223467.5 -69533.88281 2790 1 0 0 255 255 255 255
-220667.2656 -69533.88281 2640 0 1 0 255 255 255 255
-220667.2656 -69533.88281 2790 0 1 0 255 255 255 255
-220667.2656 -67733.79688 2640 -1 0 0 255 255 255 255
-220667.2656 -67733.79688 2790 -1 0 0 255 255 255 255
-216317.2969 -67733.79688 2640 0 1 0 255 255 255 255
-216317.2969 -67733.79688 2790 0 1 0 255 255 255 255
-216317.2969 -78504.24219 2640 1 0 0 255 255 255 255
-216317.2969 -78504.24219 2790 1 0 0 255 255 255 255
-229437.5312 -70484.74219 2640 0 1 0 255 255 255 255
-229437.5312 -70484.74219 2790 0 1 0 255 255 255 255
-221957.6562 -78504.24219 2640 0 -1 0 255 255 255 255
-221957.6562 -78504.24219 2790 0 -1 0 255 255 255 255
-221957.6562 -77684.13281 2640 -1 0 0 255 255 255 255
-221957.6562 -77684.13281 2790 -1 0 0 255 255 255 255
-224449.4688 -77684.13281 2640 0 -1 0 255 255 255 255
-224449.4688 -77684.13281 2790 0 -1 0 255 255 255 255
-229437.5312 -80584.14844 2790 0 0 1 255 255 255 255
-224449.4688 -80584.14844 2790 0 0 1 255 255 255 255
-224449.4688 -80584.14844 2640 1 0 0 255 255 255 255
-229437.5312 -80584.14844 2640 -1 0 0 255 255 255 255
3 0 1 2 
3 2 1 3 
3 2 3 4 
3 4 3 5 
3 4 5 6 
3 6 5 7 
3 6 7 8 
3 8 7 9 
3 8 9 10 
3 10 9 11 
3 10 11 12 
3 12 11 13 
3 12 13 14 
3 14 13 15 
3 16 17 0 
3 0 17 1 
3 14 15 18 
3 18 15 19 
3 18 19 20 
3 20 19 21 
3 20 21 22 
3 22 21 23 
3 1 17 23 
3 23 17 24 
3 23 24 25 
3 1 23 7 
3 7 23 21 
3 7 21 9 
3 9 21 15 
3 9 15 13 
3 21 19 15 
3 13 11 9 
3 5 3 7 
3 7 3 1 
3 22 23 26 
3 26 23 25 
3 27 24 16 
3 16 24 17 
3 27 16 22 
3 22 16 0 
3 22 0 6 
3 6 0 2 
3 6 2 4 
3 22 6 20 
3 20 6 8 
3 20 8 14 
3 14 8 12 
3 12 8 10 
3 14 18 20 
3 22 26 27 
3 26 25 27 
3 27 25 24 
