ply
format ascii 1.0
comment meshmixer generated
element vertex 36
property float x
property float y
property float z
property float nx
property float ny
property float nz
property uchar red
property uchar green
property uchar blue
property uchar alpha
element face 68
property list uchar int vertex_indices
end_header
-227429.7656 -67742.13281 0 0 -1 0 255 255 255 255
-227429.7656 -67742.13281 2210 0 -1 0 255 255 255 255
-227454.7656 -67742.13281 0 0 -1 0 255 255 255 255
-227454.7656 -67742.13281 2210 0 -1 0 255 255 255 255
-227454.7656 -67666.13281 0 0 0 -1 255 255 255 255
-227429.7656 -67666.13281 0 0 0 -1 255 255 255 255
-227429.7656 -67666.13281 2134 0 1 0 255 255 255 255
-227454.7656 -67666.13281 2134 0 1 0 255 255 255 255
-227454.7656 -66802.13281 2134 0 0 -1 255 255 255 255
-227429.7656 -66802.13281 2134 0 0 -1 255 255 255 255
-227429.7656 -66802.13281 0 0 -1 0 255 255 255 255
-227454.7656 -66802.13281 0 0 -1 0 255 255 255 255
-227454.7656 -66726.13281 0 0 0 -1 255 255 255 255
-227429.7656 -66726.13281 0 0 0 -1 255 255 255 255
-227454.7656 -66726.13281 2210 0 0 1 255 255 255 255
-227429.7656 -66726.13281 2210 0 0 1 255 255 255 255
-227215.7656 -66726.13281 0 0 1 0 255 255 255 255
-227215.7656 -66726.13281 2210 0 1 0 255 255 255 255
-227190.7656 -66726.13281 0 0 1 0 255 255 255 255
-227190.7656 -66726.13281 2210 0 1 0 255 255 255 255
-227190.7656 -66802.13281 0 0 0 -1 255 255 255 255
-227215.7656 -66802.13281 0 0 0 -1 255 255 255 255
-227215.7656 -66802.13281 2134 0 -1 0 255 255 255 255
-227190.7656 -66802.13281 2134 0 -1 0 255 255 255 255
-227190.7656 -67666.13281 2134 0 0 -1 255 255 255 255
-227215.7656 -67666.13281 2134 0 0 -1 255 255 255 255
-227215.7656 -67666.13281 0 0 1 0 255 255 255 255
-227190.7656 -67666.13281 0 0 1 0 255 255 255 255
-227190.7656 -67742.13281 0 0 0 -1 255 255 255 255
-227215.7656 -67742.13281 0 0 0 -1 255 255 255 255
-227190.7656 -67742.13281 2210 0 0 1 255 255 255 255
-227215.7656 -67742.13281 2210 0 0 1 255 255 255 255
-227266.7656 -67666.13281 0 0 -1 0 255 255 255 255
-227266.7656 -67666.13281 2134 0 -1 0 255 255 255 255
-227266.7656 -66802.13281 0 0 0 -1 255 255 255 255
-227266.7656 -66802.13281 2134 0 0 1 255 255 255 255
3 0 1 2 
3 2 1 3 
3 4 5 2 
3 2 5 0 
3 6 5 7 
3 7 5 4 
3 8 9 7 
3 7 9 6 
3 10 9 11 
3 11 9 8 
3 12 13 11 
3 11 13 10 
3 3 1 14 
3 14 1 15 
3 13 15 9 
3 9 15 1 
3 9 1 6 
3 6 1 0 
3 6 0 5 
3 9 10 13 
3 3 14 8 
3 8 14 12 
3 8 12 11 
3 8 7 3 
3 3 7 2 
3 2 7 4 
3 15 13 14 
3 14 13 12 
3 16 17 18 
3 18 17 19 
3 20 21 18 
3 18 21 16 
3 22 21 23 
3 23 21 20 
3 24 25 23 
3 23 25 22 
3 26 25 27 
3 27 25 24 
3 28 29 27 
3 27 29 26 
3 19 17 30 
3 30 17 31 
3 17 22 31 
3 31 22 25 
3 31 25 29 
3 29 25 26 
3 17 16 22 
3 22 16 21 
3 28 24 30 
3 30 24 23 
3 30 23 19 
3 19 23 18 
3 18 23 20 
3 28 27 24 
3 31 29 30 
3 30 29 28 
3 26 25 32 
3 32 25 33 
3 34 21 32 
3 32 21 26 
3 33 25 35 
3 35 25 22 
3 25 26 22 
3 22 26 21 
3 35 34 33 
3 33 34 32 
3 22 21 35 
3 35 21 34 
