ply
format ascii 1.0
comment meshmixer generated
element vertex 40
property float x
property float y
property float z
property float nx
property float ny
property float nz
property uchar red
property uchar green
property uchar blue
property uchar alpha
element face 76
property list uchar int vertex_indices
end_header
-222757.5 -70778.8125 2207 0 -1 0 255 255 255 255
-222757.5 -70778.8125 1113 0 -1 0 255 255 255 255
-222477.5 -70778.8125 2207 0 -1 0 255 255 255 255
-222477.5 -70778.8125 1113 0 -1 0 255 255 255 255
-222477.5 -70766.8125 2207 0 1 0 255 255 255 255
-222477.5 -70766.8125 1113 0 1 0 255 255 255 255
-222757.5 -70766.8125 2207 0 1 0 255 255 255 255
-222757.5 -70766.8125 1113 0 1 0 255 255 255 255
-222477.5 -70750.8125 2207 0 0 -1 255 255 255 255
-222757.5 -70750.8125 2207 0 0 -1 255 255 255 255
-222757.5 -70794.8125 2207 0 0 -1 255 255 255 255
-222477.5 -70794.8125 2207 0 0 -1 255 255 255 255
-222757.5 -70750.8125 1113 1 0 0 255 255 255 255
-222477.5 -70794.8125 1113 0 0 1 255 255 255 255
-222757.5 -70794.8125 1113 0 0 1 255 255 255 255
-222477.5 -70750.8125 1113 0 0 1 255 255 255 255
-222788.5 -70794.8125 2238 0 -1 0 255 255 255 255
-222788.5 -70794.8125 1082 0 -1 0 255 255 255 255
-222446.5 -70794.8125 1082 0 -1 0 255 255 255 255
-222446.5 -70794.8125 2238 0 -1 0 255 255 255 255
-222801.5 -70750.8125 2251 0 1 0 255 255 255 255
-222801.5 -70750.8125 1069 0 1 0 255 255 255 255
-222433.5 -70750.8125 1069 0 1 0 255 255 255 255
-222433.5 -70750.8125 2251 0 1 0 255 255 255 255
-222433.5 -70731.8125 2251 0 0 -1 255 255 255 255
-222801.5 -70731.8125 2251 0 0 -1 255 255 255 255
-222801.5 -70731.8125 1069 1 0 0 255 255 255 255
-222820.5 -70731.8125 2270 0 1 0 255 255 255 255
-222820.5 -70731.8125 1050 0 1 0 255 255 255 255
-222433.5 -70731.8125 1069 0 1 0 255 255 255 255
-222414.5 -70731.8125 1050 0 1 0 255 255 255 255
-222414.5 -70731.8125 2270 0 1 0 255 255 255 255
-222414.5 -70945.8125 2270 1 0 0 255 255 255 255
-222414.5 -70945.8125 1050 1 0 0 255 255 255 255
-222820.5 -70945.8125 2270 0 0 1 255 255 255 255
-222820.5 -70945.8125 1050 0 0 -1 255 255 255 255
-222788.5 -70945.8125 2238 0 0 -1 255 255 255 255
-222446.5 -70945.8125 2238 0 0 -1 255 255 255 255
-222788.5 -70945.8125 1082 1 0 0 255 255 255 255
-222446.5 -70945.8125 1082 -1 0 0 255 255 255 255
3 0 1 2 
3 2 1 3 
3 4 5 6 
3 6 5 7 
3 4 6 8 
3 8 6 9 
3 0 2 10 
3 10 2 11 
3 6 7 9 
3 9 7 12 
3 3 1 13 
3 13 1 14 
3 7 5 12 
3 12 5 15 
3 5 4 15 
3 15 4 8 
3 2 3 11 
3 11 3 13 
3 11 16 10 
3 10 16 17 
3 10 17 14 
3 14 17 13 
3 13 17 18 
3 13 18 19 
3 16 11 19 
3 19 11 13 
3 1 0 14 
3 14 0 10 
3 8 9 20 
3 20 9 12 
3 20 12 21 
3 21 12 15 
3 21 15 22 
3 22 15 8 
3 22 8 23 
3 23 8 20 
3 23 20 24 
3 24 20 25 
3 20 21 25 
3 25 21 26 
3 24 25 27 
3 27 25 26 
3 27 26 28 
3 28 26 29 
3 28 29 30 
3 30 29 24 
3 30 24 31 
3 31 24 27 
3 22 23 29 
3 29 23 24 
3 21 22 26 
3 26 22 29 
3 32 33 31 
3 31 33 30 
3 34 32 27 
3 27 32 31 
3 33 35 30 
3 30 35 28 
3 16 19 36 
3 36 19 37 
3 17 16 38 
3 38 16 36 
3 19 18 37 
3 37 18 39 
3 37 34 36 
3 36 34 35 
3 36 35 38 
3 38 35 39 
3 39 35 33 
3 39 33 32 
3 34 37 32 
3 32 37 39 
3 18 17 39 
3 39 17 38 
3 35 34 28 
3 28 34 27 
