ply
format ascii 1.0
comment meshmixer generated
element vertex 40
property float x
property float y
property float z
property float nx
property float ny
property float nz
property uchar red
property uchar green
property uchar blue
property uchar alpha
element face 76
property list uchar int vertex_indices
end_header
-223502.5 -66669.625 2157 -1 0 0 255 255 255 255
-223502.5 -66669.625 1063 -1 0 0 255 255 255 255
-223502.5 -67458.625 2157 -1 0 0 255 255 255 255
-223502.5 -67458.625 1063 -1 0 0 255 255 255 255
-223490.5 -67458.625 2157 1 0 0 255 255 255 255
-223490.5 -67458.625 1063 1 0 0 255 255 255 255
-223490.5 -66669.625 2157 1 0 0 255 255 255 255
-223490.5 -66669.625 1063 1 0 0 255 255 255 255
-223474.5 -66669.625 2157 0 0 -1 255 255 255 255
-223474.5 -67458.625 2157 0 0 -1 255 255 255 255
-223518.5 -67458.625 2157 0 0 -1 255 255 255 255
-223518.5 -66669.625 2157 0 0 -1 255 255 255 255
-223474.5 -66669.625 1063 0 -1 0 255 255 255 255
-223518.5 -66669.625 1063 0 0 1 255 255 255 255
-223518.5 -67458.625 1063 0 0 1 255 255 255 255
-223474.5 -67458.625 1063 0 0 1 255 255 255 255
-223518.5 -67489.625 2188 -1 0 0 255 255 255 255
-223518.5 -66638.625 2188 -1 0 0 255 255 255 255
-223518.5 -66638.625 1032 -1 0 0 255 255 255 255
-223518.5 -67489.625 1032 -1 0 0 255 255 255 255
-223474.5 -66625.625 2201 1 0 0 255 255 255 255
-223474.5 -67502.625 2201 1 0 0 255 255 255 255
-223474.5 -67502.625 1019 1 0 0 255 255 255 255
-223474.5 -66625.625 1019 1 0 0 255 255 255 255
-223455.5 -67502.625 1019 0 1 0 255 255 255 255
-223455.5 -67502.625 2201 0 1 0 255 255 255 255
-223455.5 -66625.625 2201 0 0 -1 255 255 255 255
-223455.5 -66625.625 1019 1 0 0 255 255 255 255
-223455.5 -66606.625 2220 1 0 0 255 255 255 255
-223455.5 -67521.625 2220 1 0 0 255 255 255 255
-223455.5 -67521.625 1000 1 0 0 255 255 255 255
-223455.5 -66606.625 1000 1 0 0 255 255 255 255
-223669.5 -67521.625 2220 0 -1 0 255 255 255 255
-223669.5 -67521.625 1000 0 -1 0 255 255 255 255
-223669.5 -66606.625 2220 0 0 1 255 255 255 255
-223669.5 -67489.625 2188 0 0 -1 255 255 255 255
-223669.5 -66638.625 2188 0 0 -1 255 255 255 255
-223669.5 -67489.625 1032 0 1 0 255 255 255 255
-223669.5 -66638.625 1032 0 -1 0 255 255 255 255
-223669.5 -66606.625 1000 -1 0 0 255 255 255 255
3 0 1 2 
3 2 1 3 
3 4 5 6 
3 6 5 7 
3 6 8 4 
3 4 8 9 
3 2 10 0 
3 0 10 11 
3 6 7 8 
3 8 7 12 
3 1 13 3 
3 3 13 14 
3 5 15 7 
3 7 15 12 
3 5 4 15 
3 15 4 9 
3 2 3 10 
3 10 3 14 
3 10 16 11 
3 11 16 17 
3 11 17 18 
3 10 14 16 
3 16 14 19 
3 19 14 13 
3 19 13 18 
3 18 13 11 
3 12 20 8 
3 8 20 21 
3 8 21 9 
3 9 21 22 
3 9 22 15 
3 15 22 12 
3 12 22 23 
3 12 23 20 
3 1 0 13 
3 13 0 11 
3 22 21 24 
3 24 21 25 
3 20 26 21 
3 21 26 25 
3 27 28 26 
3 26 28 29 
3 26 29 25 
3 25 29 30 
3 25 30 24 
3 24 30 27 
3 27 30 31 
3 27 31 28 
3 20 23 26 
3 26 23 27 
3 22 24 23 
3 23 24 27 
3 32 33 29 
3 29 33 30 
3 28 34 29 
3 29 34 32 
3 16 35 17 
3 17 35 36 
3 16 19 35 
3 35 19 37 
3 18 17 38 
3 38 17 36 
3 35 32 36 
3 36 32 34 
3 36 34 39 
3 35 37 32 
3 32 37 33 
3 33 37 38 
3 33 38 39 
3 39 38 36 
3 18 38 19 
3 19 38 37 
3 30 33 31 
3 31 33 39 
3 39 34 31 
3 31 34 28 
