ply
format ascii 1.0
comment meshmixer generated
element vertex 40
property float x
property float y
property float z
property float nx
property float ny
property float nz
property uchar red
property uchar green
property uchar blue
property uchar alpha
element face 76
property list uchar int vertex_indices
end_header
-218753.0469 -78437.24219 2207 0 1 0 255 255 255 255
-218753.0469 -78437.24219 1113 0 1 0 255 255 255 255
-219542.0469 -78437.24219 2207 0 1 0 255 255 255 255
-219542.0469 -78437.24219 1113 0 1 0 255 255 255 255
-219542.0469 -78449.24219 2207 0 -1 0 255 255 255 255
-219542.0469 -78449.24219 1113 0 -1 0 255 255 255 255
-218753.0469 -78449.24219 2207 0 -1 0 255 255 255 255
-218753.0469 -78449.24219 1113 0 -1 0 255 255 255 255
-218753.0469 -78465.24219 2207 -1 0 0 255 255 255 255
-218753.0469 -78465.24219 1113 -1 0 0 255 255 255 255
-218753.0469 -78421.24219 1113 -1 0 0 255 255 255 255
-218753.0469 -78421.24219 2207 -1 0 0 255 255 255 255
-219542.0469 -78465.24219 1113 0 0 1 255 255 255 255
-219542.0469 -78421.24219 2207 1 0 0 255 255 255 255
-219542.0469 -78421.24219 1113 1 0 0 255 255 255 255
-219542.0469 -78465.24219 2207 1 0 0 255 255 255 255
-219573.0469 -78421.24219 2238 0 1 0 255 255 255 255
-219573.0469 -78421.24219 1082 0 1 0 255 255 255 255
-218722.0469 -78421.24219 1082 0 1 0 255 255 255 255
-218722.0469 -78421.24219 2238 0 1 0 255 255 255 255
-219586.0469 -78465.24219 2251 0 -1 0 255 255 255 255
-219586.0469 -78465.24219 1069 0 -1 0 255 255 255 255
-218709.0469 -78465.24219 1069 0 -1 0 255 255 255 255
-218709.0469 -78465.24219 2251 0 -1 0 255 255 255 255
-218709.0469 -78484.24219 1069 0 0 1 255 255 255 255
-219586.0469 -78484.24219 1069 0 0 1 255 255 255 255
-219586.0469 -78484.24219 2251 1 0 0 255 255 255 255
-218709.0469 -78484.24219 2251 0 0 -1 255 255 255 255
-219605.0469 -78484.24219 2270 0 -1 0 255 255 255 255
-219605.0469 -78484.24219 1050 0 -1 0 255 255 255 255
-218690.0469 -78484.24219 1050 0 -1 0 255 255 255 255
-218690.0469 -78484.24219 2270 0 -1 0 255 255 255 255
-218690.0469 -78184.24219 1050 1 0 0 255 255 255 255
-218690.0469 -78184.24219 2270 1 0 0 255 255 255 255
-219605.0469 -78184.24219 1050 0 0 -1 255 255 255 255
-219605.0469 -78184.24219 2270 0 0 1 255 255 255 255
-219573.0469 -78184.24219 2238 0 0 -1 255 255 255 255
-218722.0469 -78184.24219 2238 0 0 -1 255 255 255 255
-219573.0469 -78184.24219 1082 0 1 0 255 255 255 255
-218722.0469 -78184.24219 1082 0 1 0 255 255 255 255
3 0 1 2 
3 2 1 3 
3 4 5 6 
3 6 5 7 
3 6 7 8 
3 8 7 9 
3 1 0 10 
3 10 0 11 
3 7 5 9 
3 9 5 12 
3 2 3 13 
3 13 3 14 
3 5 4 12 
3 12 4 15 
3 4 6 15 
3 15 6 8 
3 0 2 11 
3 11 2 13 
3 11 13 16 
3 16 13 14 
3 16 14 17 
3 17 14 10 
3 17 10 18 
3 18 10 11 
3 18 11 19 
3 19 11 16 
3 8 20 15 
3 15 20 21 
3 15 21 12 
3 12 21 9 
3 9 21 22 
3 9 22 23 
3 20 8 23 
3 23 8 9 
3 3 1 14 
3 14 1 10 
3 22 21 24 
3 24 21 25 
3 21 20 25 
3 25 20 26 
3 20 23 26 
3 26 23 27 
3 27 28 26 
3 26 28 29 
3 26 29 25 
3 25 29 24 
3 24 29 30 
3 24 30 31 
3 28 27 31 
3 31 27 24 
3 23 22 27 
3 27 22 24 
3 32 33 30 
3 30 33 31 
3 34 32 29 
3 29 32 30 
3 33 35 31 
3 31 35 28 
3 36 37 16 
3 16 37 19 
3 37 36 35 
3 35 36 38 
3 35 38 34 
3 34 38 39 
3 34 39 32 
3 32 39 37 
3 32 37 33 
3 33 37 35 
3 38 36 17 
3 17 36 16 
3 37 39 19 
3 19 39 18 
3 39 38 18 
3 18 38 17 
3 35 34 28 
3 28 34 29 
