ply
format ascii 1.0
comment meshmixer generated
element vertex 8
property float x
property float y
property float z
property float nx
property float ny
property float nz
property uchar red
property uchar green
property uchar blue
property uchar alpha
element face 12
property list uchar int vertex_indices
end_header
-223120.6875 -71118.8125 2640 1 0 0 255 255 255 255
-223120.6875 -71118.8125 -150 1 0 0 255 255 255 255
-223120.6875 -71098.8125 2640 1 0 0 255 255 255 255
-223120.6875 -71098.8125 -150 1 0 0 255 255 255 255
-223295 -71098.8125 -150 0 1 0 255 255 255 255
-223295 -71098.8125 2640 0 1 0 255 255 255 255
-223295 -71118.8125 2640 0 0 1 255 255 255 255
-223295 -71118.8125 -150 0 0 -1 255 255 255 255
3 0 1 2 
3 2 1 3 
3 4 5 3 
3 3 5 2 
3 6 0 5 
3 5 0 2 
3 1 7 3 
3 3 7 4 
3 1 0 7 
3 7 0 6 
3 7 6 4 
3 4 6 5 
