ply
format ascii 1.0
comment meshmixer generated
element vertex 40
property float x
property float y
property float z
property float nx
property float ny
property float nz
property uchar red
property uchar green
property uchar blue
property uchar alpha
element face 80
property list uchar int vertex_indices
end_header
-216298.5 -68796.375 919.567627 0 1 0 255 255 255 255
-216317.5625 -68796.375 919.567627 0 1 0 255 255 255 255
-216298.5 -68796.375 970 0 1 0 255 255 255 255
-216317.5625 -68796.375 979.567627 0 1 0 255 255 255 255
-216298.5 -68796.375 979.567627 0 1 0 255 255 255 255
-216298.5 -69766.375 919.567627 0 0 -1 255 255 255 255
-216317.5625 -69766.375 919.567627 0 0 -1 255 255 255 255
-216298.5 -69766.375 970 1 0 0 255 255 255 255
-216298.5 -69766.375 979.567627 0 -1 0 255 255 255 255
-216317.5625 -69766.375 979.567627 0 -1 0 255 255 255 255
-216298.5 -68783.67969 970 -1 0 0 255 255 255 255
-216298.5 -68783.67969 979.567627 -1 0 0 255 255 255 255
-216317.5625 -68783.67969 979.567627 0 0 -1 255 255 255 255
-216298.5 -69766.375 1000 0 0 1 255 255 255 255
-216317.5625 -69766.375 1000 0 0 1 255 255 255 255
-216298.5 -69779.07812 1000 0 0 1 255 255 255 255
-216317.5625 -69779.07812 1000 0 0 1 255 255 255 255
-216317.5625 -68796.375 1000 0 0 1 255 255 255 255
-216298.5 -68796.375 1000 0 0 1 255 255 255 255
-216317.5625 -68783.67969 1000 0 0 1 255 255 255 255
-216298.5 -68783.67969 1000 0 0 1 255 255 255 255
-216279.4531 -68783.67969 970 0 0 -1 255 255 255 255
-216279.4531 -69779.07812 970 0 0 -1 255 255 255 255
-216298.5 -69779.07812 970 0 0 -1 255 255 255 255
-216317.5625 -69779.07812 979.567627 0 0 -1 255 255 255 255
-216298.5 -69779.07812 979.567627 0 0 -1 255 255 255 255
-216279.4531 -68783.67969 997.5419312 0.1279922128 0 0.9917751551 255 255 255 255
-216298.5 -68856.375 1000 0.1279922128 0 0.9917751551 255 255 255 255
-216279.4531 -69779.07812 997.5419312 0.1279922128 0 0.9917751551 255 255 255 255
-216298.5 -69706.375 1000 0.1279922128 0 0.9917751551 255 255 255 255
-216317.5625 -68856.375 1000 0 0 1 255 255 255 255
-216317.5625 -69706.375 1000 0 0 1 255 255 255 255
-216317.5625 -68856.375 1900 0 -1 0 255 255 255 255
-216298.5 -68856.375 1900 0 -1 0 255 255 255 255
-216298.5 -69706.375 1900 0 0 -1 255 255 255 255
-216317.5625 -69706.375 1900 0 0 -1 255 255 255 255
-216317.5625 -69766.375 1960 0 -1 0 255 255 255 255
-216298.5 -69766.375 1960 0 -1 0 255 255 255 255
-216317.5625 -68796.375 1960 0 1 0 255 255 255 255
-216298.5 -68796.375 1960 0 1 0 255 255 255 255
3 0 1 2 
3 2 1 3 
3 2 3 4 
3 5 6 0 
3 0 6 1 
3 7 5 2 
3 2 5 0 
3 8 9 7 
3 7 9 6 
3 7 6 5 
3 2 4 10 
3 10 4 11 
3 4 3 11 
3 11 3 12 
3 13 14 15 
3 15 14 16 
3 17 18 19 
3 19 18 20 
3 10 21 2 
3 2 21 22 
3 2 22 7 
3 7 22 23 
3 9 8 24 
3 24 8 25 
3 26 27 28 
3 28 27 29 
3 28 29 13 
3 20 18 26 
3 26 18 27 
3 13 15 28 
3 23 22 25 
3 25 22 28 
3 25 28 15 
3 16 24 15 
3 15 24 25 
3 21 26 22 
3 22 26 28 
3 10 11 21 
3 21 11 26 
3 26 11 20 
3 20 11 19 
3 19 11 12 
3 27 30 29 
3 29 30 31 
3 8 7 25 
3 25 7 23 
3 32 30 33 
3 33 30 27 
3 34 35 33 
3 33 35 32 
3 31 35 29 
3 29 35 34 
3 36 14 37 
3 37 14 13 
3 17 38 18 
3 18 38 39 
3 32 17 30 
3 30 17 3 
3 30 3 1 
3 35 36 32 
3 32 36 38 
3 32 38 17 
3 36 35 14 
3 14 35 31 
3 14 31 9 
3 9 31 6 
3 6 31 30 
3 6 30 1 
3 19 12 17 
3 17 12 3 
3 24 16 9 
3 9 16 14 
3 18 39 33 
3 33 39 37 
3 33 37 34 
3 34 37 13 
3 34 13 29 
3 33 27 18 
3 39 38 37 
3 37 38 36 
