ply
format ascii 1.0
comment meshmixer generated
element vertex 16
property float x
property float y
property float z
property float nx
property float ny
property float nz
property uchar red
property uchar green
property uchar blue
property uchar alpha
element face 32
property list uchar int vertex_indices
end_header
-216647.5625 -69693.67969 1012.700012 0 0 1 255 255 255 255
-216617.5625 -69693.67969 1012.700012 0 0 1 255 255 255 255
-216647.5625 -68869.07812 1012.700012 0 0 1 255 255 255 255
-216617.5625 -68869.07812 1012.700012 0 0 1 255 255 255 255
-216617.5625 -69693.67969 1887.300049 0 1 0 255 255 255 255
-216647.5625 -69693.67969 1887.300049 0 1 0 255 255 255 255
-216617.5625 -68869.07812 1887.300049 0 -1 0 255 255 255 255
-216647.5625 -68869.07812 1887.300049 0 -1 0 255 255 255 255
-216617.5625 -68809.07812 1947.300049 0 1 0 255 255 255 255
-216617.5625 -68809.07812 952.7000122 0 1 0 255 255 255 255
-216647.5625 -68809.07812 1947.300049 0 1 0 255 255 255 255
-216647.5625 -68809.07812 952.7000122 0 1 0 255 255 255 255
-216647.5625 -69753.67969 1947.300049 -1 0 0 255 255 255 255
-216647.5625 -69753.67969 952.7000122 -1 0 0 255 255 255 255
-216617.5625 -69753.67969 1947.300049 1 0 0 255 255 255 255
-216617.5625 -69753.67969 952.7000122 1 0 0 255 255 255 255
3 0 1 2 
3 2 1 3 
3 4 1 5 
3 5 1 0 
3 3 6 2 
3 2 6 7 
3 8 9 10 
3 10 9 11 
3 5 12 7 
3 7 12 10 
3 7 10 11 
3 5 0 12 
3 12 0 13 
3 13 0 2 
3 13 2 11 
3 11 2 7 
3 3 8 6 
3 6 8 14 
3 6 14 4 
3 4 14 15 
3 4 15 1 
3 1 15 3 
3 3 15 9 
3 3 9 8 
3 12 14 10 
3 10 14 8 
3 11 9 13 
3 13 9 15 
3 15 14 13 
3 13 14 12 
3 7 6 5 
3 5 6 4 
